/* XPM */
static char *_a52f7a417c945befea3d6744a7b48e2pvAsQgLCI0lW22ma[] = {
/* columns rows colors chars-per-pixel */
"32 32 8 1 ",
"  c #3F3126",
". c #48382B",
"X c #524031",
"o c #604B40",
"O c #7A5F42",
"+ c #8B6B44",
"@ c #9C8454",
"# c #D4B980",
/* pixels */
"++++++++++++++++++++++++++++++++",
"+@############################@+",
"+#@##########################@#+",
"+##XoOOOOOOOOOOOOOOOOOOOOOOOO##+",
"+##XXoOOOOOOOOOOOOOOOOOOOOOOO##+",
"+##XXXooooooooooooooooooooooO##+",
"+##      oooooooooooooooooooO##+",
"+## oO@@ XXXXXXXXXXXXXXXXXXXX##+",
"+## oOO@ XXoooooooooooooooooO##+",
"+## XOX@ XXXooooooooooooooooO##+",
"+## oOO@      ooooooooooooooO##+",
"+## oOO@ oO@@ XoooooooooooooO##+",
"+## oOO@ oOO@ XXXXXXXXXXXXXXX##+",
"+## oOO@ XOX@ XXXoooooooooooO##+",
"+## oOO@ oOO@      oooooooooO##+",
"+## oOO@ oOO@ XoOO XooooooooO##+",
"+## oOO@ oOO@ XooO XXoooooooo##+",
"+## oOO@ oOO@ .o.O XXXXXXXXXX##+",
"+## oOO@ oOO@ XooO      ooooO##+",
"+## oOO@ oOO@ XooO .Xoo XoooO##+",
"+## oOO@ oOO@ XooO .XXo XXooo##+",
"+## oOO@ oOO@ XooO  X o XXXoo##+",
"+## oOO@ oOO@ XooO .XXo      ##+",
"+## oOO@ oOO@ XooO .XXo ..XX ##+",
"+## oOO@ oOO@ XooO .XXo ...X ##+",
"+## oOO@ oOO@ XooO .XXo  . X ##+",
"+## oOO@ oOO@ XooO .XXo ...X ##+",
"+## oOO@ oOO@ XooO .XXo ...X ##+",
"+##                          ##+",
"+#@##########################@#+",
"+@############################@+",
"++++++++++++++++++++++++++++++++"
};
