/* XPM */
static char *_550535df5f24baee2d92825e0d7c7f6cDbVJAp2QXwl96IF[] = {
/* columns rows colors chars-per-pixel */
"32 32 79 1 ",
"  c None",
". c #363C3A",
"X c #393E3C",
"o c #27611D",
"O c #29641E",
"+ c #2B6A1F",
"@ c #304F2E",
"# c #2B5326",
"$ c #2C5C25",
"% c #2F552B",
"& c #2E5929",
"* c #31552E",
"= c #325A2D",
"- c #354D34",
"; c #37423A",
": c #39463C",
"> c #364938",
", c #394C3B",
"< c #345333",
"1 c #335930",
"2 c #395E34",
"3 c #385039",
"4 c #2C6323",
"5 c #2E6C21",
"6 c #2F6228",
"7 c #316E24",
"8 c #31622A",
"9 c #356C2A",
"0 c #2F7021",
"q c #337325",
"w c #367628",
"e c #38752B",
"r c #377828",
"t c #3B7B2C",
"y c #3C6436",
"u c #3E7633",
"i c #3F7F30",
"p c #405E3D",
"a c #407E31",
"s c #457D3A",
"d c #3E4442",
"f c #414745",
"g c #424C45",
"h c #454A49",
"j c #4A544D",
"k c #4E5351",
"l c #4F5851",
"z c #505452",
"x c #515B54",
"c c #555959",
"v c #5A5F5F",
"b c #467040",
"n c #50774B",
"m c #576857",
"M c #5E655F",
"N c #597658",
"B c #5F6A61",
"V c #656A69",
"C c #6B6F6F",
"Z c #6B7F69",
"A c #6D7270",
"S c #717674",
"D c #757B78",
"F c #458435",
"G c #488737",
"H c #488738",
"J c #4C8B3C",
"K c #508F3F",
"L c #508F40",
"P c #549343",
"I c #589747",
"U c #60805B",
"Y c #6B8E67",
"T c #7B827D",
"R c #7E8680",
"E c #808E82",
"W c #8F988F",
"Q c #92A192",
"! c #A2BF9B",
/* pixels */
"                                ",
"              2<,W              ",
"           s!s44o2Qm            ",
"         uetJFrttwy6*-;         ",
"        erGPPIJtJJHe54<-T       ",
"      5tFPPIIIPGLPPJaw==1,      ",
"     9waGJIIIPPJPPLJttwew*,     ",
"     JKPLGJPILKGFJJFwtFFFw4U    ",
"    aHPIPJHLPIPPKGttiHJJGt8,S   ",
"   sFPIPJHJPIIIIPJiriHPPJGw*d   ",
"   qGLPJsHPIIIIIKJFrFJPPPKt&>M  ",
"  uqtHJFtJPIPPPLJGJiHPKPPJt4%g  ",
"  7FJLPHtGLPLPLPHJFtiLIPJHt5#B  ",
" bwHPIPPGtGJKLJFtiirqiJKHt5$%<  ",
" YwJPPPLHFGGJGti0riFFGGir744%-h ",
" nwHLJKGGJPKPHiriFJPKGFiq5+o#.B ",
" *5tFGGFJPPPPKJiiLPIIJHFirO$%@j ",
" Y$5tFttLPPPLKKGGLPPLHitrtq+$$,v",
" N%$5qqqGLLLJJJtJJJJPJFi0qr+$-:B",
" *$&o++qiHGJGGGtHHJLLPJJi0+O&,:B",
"E*+oO5q0iitFGiFtFHJPPPLJawO$%<>v",
"R-4++5tr0triFtr0tGJLLKHFt9&&**:z",
" ;15+O5r00rtGGtrrtFGHFir7=*&&:z ",
" j-$O46+O50iHJHFtrttt00+O$$$*:x ",
"  l<$$*$+O5tFFFtwt05+++54<&&,;j ",
"  D;-$$*&$50r5rqr564+Oo$<<*<,;c ",
"  j;;<$&<3$5++++5o&&$$$<,<1,;f  ",
"   h.,,<%,<&$+oo$$$*<,,,3,>;d   ",
"    gg,,>;,,,$$$<,,&$<::,gdd    ",
"      gdh,;,,3,,,,;,,>>gdVA     ",
"       lTgdd.,,,..:,gXdCv       ",
"          jTd.......Sc          "
};
