/* XPM */
static char *_09dd3447251463f95b00e607ce75b4fo6Hn7r7cEtvFPFen[] = {
/* columns rows colors chars-per-pixel */
"32 32 61 1 ",
"  c None",
". c #4F422F",
"X c #564A38",
"o c #584C3A",
"O c #5B4F3E",
"+ c #635848",
"@ c #8E6213",
"# c #B27814",
"$ c #9F7A20",
"% c #9B7239",
"& c #9B7D4A",
"* c #997D4D",
"= c #AF8A3F",
"- c #BB9139",
"; c #CA8815",
": c #C89522",
"> c #C89931",
", c #D7A229",
"< c #E2A923",
"1 c #E2AA25",
"2 c #E2AB28",
"3 c #9E8151",
"4 c #A08048",
"5 c #A38755",
"6 c #AC905C",
"7 c #8B8478",
"8 c #8E877C",
"9 c #BA9969",
"0 c #BEA169",
"q c #BDA074",
"w c #C2984F",
"e c #C7A15F",
"r c #E5B84F",
"t c #C9A974",
"y c #E6C065",
"u c #3B8FB3",
"i c #74AEC7",
"p c #54CCFF",
"a c #60CFFE",
"s c #6FD3FD",
"d c #84848C",
"f c #9D988F",
"g c #D3BA83",
"h c #DAC189",
"j c #E3C887",
"k c #E8CA81",
"l c #89BACF",
"z c #BBBBCA",
"x c #EB94EB",
"c c #C8C8D4",
"v c #D0D1DB",
"b c #D3D2E0",
"n c #E8E7EF",
"m c #E8E8ED",
"M c #EEEFF2",
"N c #F9F9FA",
"B c #FAFBFB",
"V c #FBFBFC",
"C c #FDFDFE",
"Z c #FEFEFE",
"A c white",
/* pixels */
"                                ",
"                                ",
"                                ",
"                                ",
"                                ",
"            .       .           ",
"           .:.     .:.          ",
"          .$<$.   .$<$.         ",
"          .:x<.   .<x:.         ",
"         .$xx<$X+O$<xx$.        ",
"         .:x:<whqge1:x:.        ",
"        .$:<<rt3%&9y<<:$.       ",
"        .#;<<86>;,*f2<;#.       ",
"        .:<<.N5,<<4Mo<<:.       ",
"       ..#;<ui0=m-6lu<;#..      ",
"        .:<<pakvzcjsp<<:.       ",
"       ..@#;<1ZN7NZ1<;#@..      ",
"         .$nZZZdbdZZZn$.        ",
"          ..bbMnnnMbb..         ",
"           ...........          ",
"          .#1nbbbbbM<#.         ",
"         .#<$ZZZZZZZ$<#.        ",
"        .b:@.ZZZZZZZ.@:b.       ",
"        .bb..ZZZZZZZ..bb.       ",
"         .. .#ZZZZZ#. ..@.      ",
"            .:$bbb$:...$$.      ",
"            .##...##.@$@.       ",
"            .M:...:n....        ",
"            .bb. .bb.           ",
"             ..   ..            ",
"                                ",
"                                "
};
